<?xml version="1.0" encoding="UTF-8" standalone="no"?>
<!-- Created with Inkscape (http://www.inkscape.org/) -->

<svg
   width="512"
   height="512"
   viewBox="0 0 512 512"
   version="1.1"
   id="svg1"
   inkscape:version="1.3.2 (091e20e, 2023-11-25, custom)"
   sodipodi:docname="TestIcon.svg"
   xmlns:inkscape="http://www.inkscape.org/namespaces/inkscape"
   xmlns:sodipodi="http://sodipodi.sourceforge.net/DTD/sodipodi-0.dtd"
   xmlns="http://www.w3.org/2000/svg"
   xmlns:svg="http://www.w3.org/2000/svg">
  <sodipodi:namedview
     id="namedview1"
     pagecolor="#505050"
     bordercolor="#eeeeee"
     borderopacity="1"
     inkscape:showpageshadow="0"
     inkscape:pageopacity="0"
     inkscape:pagecheckerboard="0"
     inkscape:deskcolor="#505050"
     inkscape:document-units="px"
     inkscape:zoom="2.3769531"
     inkscape:cx="256"
     inkscape:cy="255.78965"
     inkscape:window-width="2560"
     inkscape:window-height="1494"
     inkscape:window-x="-11"
     inkscape:window-y="-11"
     inkscape:window-maximized="1"
     inkscape:current-layer="layer1" />
  <defs
     id="defs1" />
  <g
     inkscape:label="Layer 1"
     inkscape:groupmode="layer"
     id="layer1">
    <path
       style="fill:#ff0000"
       id="path1"
       d="m 16.926598,34.609096 c 4.372201,-1.556514 9.071016,-1.7247 13.65729,-2.016832 7.554066,-0.306328 15.141991,-0.637719 22.679145,0.180821 2.144578,0.232902 4.272315,0.600965 6.408472,0.901447 2.411771,0.439905 4.828941,0.851179 7.235314,1.319715 6.032765,1.174619 10.219094,2.139747 16.234607,3.430551 6.622456,1.421041 13.253394,2.783703 19.900714,4.082503 1.53068,0.267588 3.05861,0.551368 4.59204,0.802763 1.25092,0.205082 2.50859,0.367182 3.76044,0.566572 2.93509,0.467491 5.83971,1.071208 8.79296,1.414246 3.81681,0.406108 7.6561,0.363477 11.48303,0.590699 5.83717,0.432793 11.65952,1.041691 17.49049,1.552555 4.02341,0.345729 2.05741,0.180915 5.89791,0.495542 0,0 -11.40555,-8.416201 -11.40555,-8.416201 v 0 c -3.73612,-0.246632 -1.81609,-0.108022 -5.75978,-0.419954 -5.90436,-0.537351 -11.78991,-1.261339 -17.70511,-1.663721 C 116.29,37.176193 112.38528,37.011208 108.49913,36.589179 103.14763,35.959744 97.798118,35.295392 92.464734,34.52998 86.068976,33.476987 79.706584,32.318295 73.359928,30.995022 67.856709,29.847605 62.383552,28.558686 56.8787,27.419129 54.382541,26.902401 51.874022,26.447289 49.371683,25.961369 47.141743,25.6263 44.920609,25.226203 42.681864,24.956163 34.916287,24.019471 27.097089,24.194794 19.299837,24.48741 14.359961,24.712967 9.3422625,24.856134 4.5757395,26.310838 Z" />
    <path
       style="fill:#ff0000"
       id="path2"
       d="m 67.798565,34.499048 c 0.244702,2.839206 0.244172,5.692793 0.297862,8.539268 0.04924,2.610418 0.158985,5.220305 0.151692,7.831176 -0.01538,5.505897 -0.358811,13.836533 -0.552517,19.282185 -0.622599,16.033477 -1.391954,32.059453 -2.443249,48.070793 0,0 11.678534,6.00221 11.678534,6.00221 v 0 c 0.08813,-16.23463 0.645817,-32.463372 1.218394,-48.686833 0.381755,-6.923138 0.592889,-12.061855 1.244822,-18.923703 0.232384,-2.445929 0.584843,-4.879014 0.857296,-7.320805 0.297365,-2.665056 0.46501,-5.350171 0.880192,-8.000775 z" />
    <path
       style="fill:#ff0000"
       id="path3"
       d="m 153.43273,57.767212 c 1.00313,-0.07541 2.00505,-0.169007 3.00938,-0.22623 4.49808,-0.256282 9.69251,-0.414827 14.09393,-0.556753 10.273,-0.331259 16.10421,-0.537123 26.66541,-0.59792 4.78692,-0.02756 9.57391,0.03979 14.36087,0.05969 0,0 -8.30302,-6.032498 -8.30302,-6.032498 v 0 c -4.73219,0.01989 -9.46442,0.0865 -14.19657,0.05968 -10.89073,-0.06171 -17.62284,-0.281362 -28.31134,-0.597919 -5.07716,-0.150368 -10.51075,-0.304794 -15.62654,-0.556753 -1.21159,-0.05967 -2.42143,-0.15082 -3.63215,-0.22623 z" />
    <path
       style="fill:#ff0000"
       id="path4"
       d="m 150.54278,58.760205 c -0.15546,1.443943 -0.36321,2.883211 -0.46639,4.33183 -0.20873,2.930759 -0.25715,5.871526 -0.46901,8.802061 -0.53984,7.467477 -1.32289,14.501385 -2.1424,21.946148 -0.86628,7.869626 -1.37232,12.068526 -2.27735,19.776956 -0.31342,2.50955 -0.62685,5.0191 -0.94027,7.52865 0,0 11.09004,5.77549 11.09004,5.77549 v 0 c 0.14191,-2.59589 0.28383,-5.19177 0.42574,-7.78766 1.24027,-16.57644 2.59245,-33.384708 6.39088,-49.602943 0.31088,-1.327331 0.72397,-2.628625 1.08595,-3.942937 z" />
    <path
       style="fill:#ff0000"
       id="path5"
       d="m 157.50959,98.590844 c 5.03621,0.602809 9.95655,1.940666 14.96718,2.688896 4.13093,0.61686 8.29036,1.02487 12.43539,1.53852 4.69614,0.58195 9.39208,1.16551 14.08812,1.74827 0,0 -8.19965,-6.123274 -8.19965,-6.123274 v 0 c -12.52588,-1.747736 -15.76691,-1.984926 -28.01188,-4.523042 -12.29467,-2.548415 -4.99446,-1.457825 -14.92597,-3.692953 -0.76734,-0.172692 -1.5565,-0.227682 -2.33474,-0.341523 z" />
    <path
       style="fill:#ff0000"
       id="path6"
       d="m 154.72493,130.17401 c 16.55048,-0.98802 33.147,-0.60722 49.71249,-0.32163 4.25316,0.11798 8.50632,0.23595 12.75949,0.35393 0,0 -8.76624,-6.39103 -8.76624,-6.39103 v 0 c -4.11685,-0.0192 -8.23371,-0.0385 -12.35057,-0.0578 -11.73304,-0.21823 -16.5452,-0.22882 -28.30375,-0.7667 -15.84112,-0.72463 -7.70227,-0.47339 -20.42945,-1.36315 -1.56009,-0.10907 -3.12758,-0.0848 -4.68658,-0.2191 z" />
    <path
       style="fill:#ff0000"
       id="path7"
       d="m 257.4114,50.819761 c -1.72514,9.333852 -4.23823,18.506306 -6.84583,27.625482 -1.19539,4.180455 -2.361,8.370709 -3.66564,12.518367 -1.35288,4.301023 -2.87028,8.54856 -4.30542,12.82284 -5.48059,14.95896 -2.74395,7.84555 -8.15323,21.36195 0,0 10.11295,5.60417 10.11295,5.60417 v 0 c 4.56157,-13.9747 2.14938,-6.67906 7.25244,-21.88166 13.82611,-39.365746 -4.63992,13.03496 8.90882,-24.861466 3.12861,-8.750857 5.98864,-17.614764 9.57614,-26.194292 z" />
    <path
       style="fill:#ff0000"
       id="path8"
       d="m 242.00659,64.117541 c 1.81066,8.766007 3.3933,17.588521 5.44002,26.304688 0.64968,2.766718 1.37651,5.514749 2.06476,8.272123 3.54455,13.641118 7.19965,27.253208 10.76771,40.888178 0.28642,0.94842 0.51564,1.91602 0.85925,2.84524 1.91091,5.16762 11.73936,6.0679 14.75468,6.19111 1.49227,0.061 0.76647,-2.88892 1.06117,-4.35308 0.47349,-2.35245 0.81259,-4.73004 1.24223,-7.09089 0.52734,-2.89766 1.08578,-5.78957 1.62866,-8.68435 2.52996,-13.45147 5.07186,-26.91087 8.55308,-40.156044 1.99965,-7.608185 2.61297,-9.274155 4.88356,-16.478887 0.0517,-0.146162 3.05478,-9.046329 3.84175,-9.96682 0.39933,-0.467078 2.39249,0.135822 1.83889,-0.130919 -3.31376,-1.596663 -6.77521,-4.984258 -10.30462,-3.948117 -2.1747,0.638435 2.15801,3.993733 3.04568,6.079149 1.26929,2.981968 2.27767,6.068375 3.41651,9.102563 3.59285,10.938956 6.87396,21.977145 9.7526,33.125785 1.12189,4.34496 3.0038,12.32471 4.10343,16.94218 0,0 11.20129,5.3384 11.20129,5.3384 v 0 c -5.06394,-16.6913 -9.69038,-33.508037 -14.27152,-50.33735 -0.82927,-2.924371 -1.60882,-5.863298 -2.4878,-8.773114 -0.60635,-2.0073 -0.43832,-4.540099 -1.96724,-5.975131 -4.39479,-4.124909 -13.56758,-13.412984 -16.2166,-7.998956 -1.60871,3.287848 -1.15627,7.366814 -2.84369,10.606337 -2.29532,8.9668 -4.50421,17.952633 -6.59668,26.969364 -2.86873,12.3618 -1.8341,8.19725 -4.52699,20.4098 -0.69475,3.15075 -1.41475,6.29587 -2.12212,9.4438 -1.52873,6.00489 -2.19994,9.26961 -4.17952,14.92454 -0.42631,1.21782 -2.3518,2.60649 -1.49444,3.57074 3.16614,3.56089 7.88139,5.35736 11.81882,8.04084 1.31037,0.89306 -8.20407,-5.18324 -2.72873,-3.89687 -4.66522,-13.58764 -8.53425,-27.43433 -11.98237,-41.37798 -1.6263,-7.300371 -3.21594,-14.583831 -4.28805,-21.991174 -0.43756,-3.023153 -0.83177,-6.289273 -0.94895,-9.371423 -0.0237,-0.622081 0.032,-1.24465 0.048,-1.866975 z" />
    <path
       style="fill:#ff0000"
       id="path9"
       d="m 344.35903,56.926329 c 0.76157,3.138277 1.05653,4.162659 1.63012,7.965232 1.7244,11.431653 2.26169,23.031808 2.76633,34.565847 0.16849,7.527672 0.5521,15.063372 0.31039,22.595042 -0.0543,1.69204 -0.20613,3.37954 -0.30919,5.06932 0,0 11.88189,6.08644 11.88189,6.08644 v 0 c -0.15067,-9.45439 -0.68732,-18.89587 -1.13804,-28.33997 -0.93161,-18.204045 -0.0153,0.071 -0.88172,-18.357296 -0.3205,-6.816482 -0.48948,-9.121365 -0.70547,-15.704634 -0.0557,-1.697087 -0.0634,-3.395499 -0.11668,-5.092663 -0.024,-0.763817 -0.0767,-1.526461 -0.11505,-2.289692 z" />
    <path
       style="fill:#ff0000"
       id="path10"
       d="m 381.11629,52.904192 c 1.04101,0.475731 0.49491,0.230816 1.63931,0.732519 0,0 -11.56323,-9.207548 -11.56323,-9.207548 v 0 c -1.17174,-0.593753 -0.60442,-0.289743 -1.70357,-0.909 z" />
    <path
       style="fill:#ff0000"
       id="path11"
       d="m 359.19305,56.215126 c 0.31056,-0.115944 0.61387,-0.253512 0.93166,-0.347831 4.76946,-1.415573 9.77103,-1.990277 14.69531,-2.532489 7.68493,-0.454561 16.20976,-0.509504 23.36922,2.746564 1.30108,0.591721 2.47478,1.430804 3.71218,2.146206 -2.92813,-1.458316 -5.594,-3.652392 -8.78438,-4.374948 -1.19017,-0.269548 1.62209,1.842815 2.24286,2.893429 0.61058,1.03336 1.15652,2.137675 1.42156,3.308315 0.62437,2.757801 0.19341,4.988487 -1.48996,7.313924 -0.96696,1.335773 -2.34976,2.314264 -3.52464,3.471397 -1.79423,1.050866 -3.51783,2.232887 -5.3827,3.152598 -8.09283,3.991207 -17.79068,6.250965 -26.69974,7.493055 -1.71085,0.238524 -3.43475,0.371588 -5.15213,0.557382 -3.34265,0.329334 -6.69871,0.343716 -10.05257,0.328375 0,0 11.54883,8.345416 11.54883,8.345416 v 0 c 3.16207,-0.182315 6.31559,-0.453474 9.44734,-0.948969 1.62883,-0.274153 3.26414,-0.512257 4.88649,-0.822459 4.10911,-0.785684 8.76487,-1.848028 12.76584,-2.968542 4.79185,-1.342007 9.55214,-2.839719 14.07837,-4.938398 2.03483,-0.943492 3.94596,-2.133598 5.91894,-3.200396 3.02829,-2.802993 5.01974,-3.766199 6.11174,-7.876452 0.71972,-2.709002 0.028,-5.306339 -1.17941,-7.711999 -0.57806,-1.151699 -1.11347,-2.443682 -2.14471,-3.216405 -4.64418,-3.479943 -9.77777,-6.25371 -14.66666,-9.380565 -1.25075,-0.623 -2.45125,-1.359217 -3.75226,-1.869001 -3.03015,-1.187324 -6.08673,-1.755858 -9.30389,-2.152257 -4.83167,-0.59533 -9.70983,-0.579404 -14.55925,-0.253178 -5.63776,0.52984 -11.28331,1.196458 -16.81396,2.440284 z" />
    <path
       style="fill:#ff0000"
       id="path12"
       d="m 26.238796,235.62705 c 3.656474,-1.76909 7.637767,-2.85349 11.637104,-3.51131 2.282101,-0.37536 4.572938,-0.73216 6.879515,-0.90124 2.893089,-0.21207 5.799483,-0.16049 8.699225,-0.24073 3.506935,0.20737 7.0203,0.32535 10.520803,0.62212 7.485588,0.6346 17.667139,2.00267 25.042151,2.9258 4.498235,0.56304 9.000129,1.09727 13.495576,1.68218 9.89117,1.28695 13.92356,1.90402 23.50175,3.29234 0,0 -9.2117,-6.87583 -9.2117,-6.87583 v 0 c -12.10964,-1.37419 -24.203727,-2.83594 -36.284881,-4.44485 -7.051451,-0.93908 -18.570736,-2.61497 -25.745985,-3.36649 -3.688706,-0.38635 -7.392605,-0.61046 -11.088907,-0.91569 -3.082288,-0.005 -6.166349,-0.11951 -9.246865,-0.0149 -6.975923,0.23696 -13.954053,1.21114 -20.561301,3.50932 z" />
    <path
       style="fill:#ff0000"
       id="path13"
       d="m 59.508,228.5358 c 0.978243,6.46467 1.348997,13.06586 1.315616,19.60064 -0.03231,6.32411 -0.526287,12.60319 -0.928754,18.90918 -0.671527,9.31589 -1.577945,18.61181 -2.547488,27.90054 0,0 11.872117,6.14344 11.872117,6.14344 v 0 c 0.220275,-9.53271 0.58719,-19.06142 1.23398,-28.57596 0.368848,-5.3868 0.894809,-13.3473 1.339776,-18.74579 0.219635,-2.6647 0.561693,-5.31944 0.731616,-7.98776 0.225819,-3.54607 0.02268,-7.12117 0.270322,-10.66898 z" />
    <path
       style="fill:#ff0000"
       id="path14"
       d="m 24.953662,312.2859 c 3.532513,-1.64461 7.082774,-3.35361 10.832968,-4.45593 1.131408,-0.33256 2.286801,-0.57729 3.430201,-0.86594 1.390021,-0.24082 2.772628,-0.52925 4.170062,-0.72246 4.768127,-0.65924 8.780454,-0.93528 13.654134,-1.20977 10.829357,-0.60992 21.669874,-0.75652 32.512414,-0.93473 21.791189,-0.41014 43.586889,-0.55552 65.381299,-0.4012 2.31761,0.0349 4.63523,0.0697 6.95285,0.10462 0,0 -10.38237,-7.53129 -10.38237,-7.53129 v 0 c -2.17566,0.0687 -4.35131,0.13743 -6.52696,0.20614 -21.44122,0.54139 -42.88646,0.98085 -64.333954,1.16083 -8.696487,0.0115 -14.93557,0.008 -23.571452,0.0628 -6.511484,0.041 -11.887215,0.0515 -18.319058,0.32075 -2.177319,0.0912 -4.357178,0.17571 -6.526335,0.38496 -1.487632,0.1435 -2.955288,0.44815 -4.432932,0.67222 -1.212953,0.28784 -2.437728,0.52977 -3.638859,0.86353 -3.926832,1.09113 -7.606523,2.90114 -11.519494,4.02641 z" />
    <path
       style="fill:#ff0000"
       id="path15"
       d="m 203.78199,220.14779 c -9.86161,6.26355 -18.31178,14.43509 -26.78601,22.40208 -5.49963,5.43455 -10.76741,11.19337 -15.05752,17.65293 -1.81801,2.73736 -3.6417,5.83859 -4.40387,9.09925 -0.29713,1.27116 -0.22683,2.60098 -0.34025,3.90147 0.40606,1.40266 0.62379,2.87418 1.21817,4.20799 1.39142,3.1224 3.94468,6.19487 6.25443,8.62302 3.14035,3.30134 6.3743,5.98931 10.12511,8.5953 1.91328,1.32931 3.94858,2.47375 5.92288,3.71063 5.71401,3.09498 11.32042,6.39744 17.14203,9.28496 1.98335,0.98374 4.1175,1.63902 6.22833,2.30674 3.75498,1.18782 7.89425,2.12705 11.84432,2.37198 4.84627,0.3005 5.71573,-0.14741 10.34304,-1.01502 3.86644,-1.52763 5.27708,-1.76971 8.61988,-4.3678 1.4524,-1.12883 2.69232,-2.50723 4.03848,-3.76085 0,0 -11.27317,-7.00247 -11.27317,-7.00247 v 0 c -1.36494,1.14748 -2.64454,2.40489 -4.0948,3.44244 -3.36853,2.40991 -4.50962,2.55311 -8.31964,3.97466 -1.5583,0.274 -3.09833,0.68869 -4.67491,0.82201 -5.63735,0.47671 -11.29617,-0.6536 -16.62629,-2.4083 -2.05911,-0.67787 -4.30677,-3.5889 -6.07171,-2.33014 -1.56371,1.11524 3.15652,2.1891 4.73478,3.28365 -1.9816,-1.1946 -4.02614,-2.29052 -5.94479,-3.58379 -3.61017,-2.43343 -6.775,-5.057 -9.80607,-8.16885 -2.14721,-2.20443 -4.63416,-5.13148 -6.04581,-7.93839 -0.59121,-1.17553 -0.87975,-2.48025 -1.31962,-3.72038 -0.0108,-1.22815 -0.20157,-2.46798 -0.0323,-3.68446 0.45218,-3.24941 1.92692,-6.3402 3.543,-9.13542 3.82723,-6.61969 8.87649,-12.44025 14.28496,-17.80099 2.18992,-1.99283 4.32269,-4.05033 6.56976,-5.97849 6.74697,-5.78942 14.06412,-11.17615 22.30131,-14.64228 z" />
    <path
       style="fill:#ff0000"
       id="path16"
       d="m 272.85659,236.4521 c -4.78415,5.47693 -9.67083,10.90284 -13.77503,16.92877 -1.14782,1.68528 -2.17355,3.45056 -3.26033,5.17584 -2.56589,4.69407 -5.20601,9.47078 -6.4567,14.72532 -0.59451,2.4977 -0.98361,5.72091 -0.36206,8.2866 0.32987,1.36169 1.078,2.5865 1.617,3.87975 1.0089,1.20033 1.90252,2.50787 3.02669,3.60097 1.15507,1.12315 2.41058,2.16244 3.77751,3.01516 6.87101,4.28632 15.24383,10.24238 23.83687,11.80778 1.31332,0.23925 2.65764,0.25523 3.98645,0.38285 2.45395,-0.25214 5.38681,-0.27612 7.61234,-1.61012 1.36511,-0.81825 2.50587,-1.98504 3.57912,-3.16029 2.49261,-2.72951 4.23372,-5.81508 5.68964,-9.19313 0.75678,-1.75588 1.28626,-3.60123 1.92938,-5.40185 1.80123,-7.08957 2.29444,-14.43325 1.08779,-21.66535 -0.62702,-3.75805 -1.0388,-4.53661 -2.217,-7.98453 -1.05627,-2.57126 -2.40951,-5.02215 -4.43649,-6.9619 -0.48621,-0.46528 -0.99634,-0.92053 -1.57734,-1.26014 -4.65646,-2.72183 -9.40963,-5.27476 -14.11444,-7.91214 0,0 11.3403,8.99197 11.3403,8.99197 v 0 c -3.54993,-2.12037 -7.09891,-4.24234 -10.6498,-6.36112 -0.59075,-0.35249 1.21816,0.65073 1.7694,1.06228 0.63383,0.4732 1.22958,1.00288 1.77017,1.5803 1.8181,1.94198 2.02024,2.65569 3.37204,5.04219 0.49926,1.18743 1.08162,2.34323 1.49778,3.56227 2.16546,6.34325 2.66803,13.33281 1.73815,19.95252 -0.26303,1.87247 -0.75212,3.70615 -1.12818,5.55923 -0.6279,1.73907 -1.13056,3.5286 -1.88371,5.2172 -1.91892,4.30235 -4.81702,8.92948 -9.19079,11.13336 -2.33149,1.17481 -4.74834,1.04154 -7.25028,1.17823 -3.67188,-0.4908 -4.1325,-0.35367 -7.70568,-1.6684 -1.37664,-0.50652 -5.19039,-2.66318 -4.03174,-1.76362 2.30232,1.78749 4.87159,3.24313 7.5161,4.46883 2.7331,1.26676 -9.92587,-6.16522 -6.83938,-5.90707 -0.58794,-1.1516 -1.36923,-2.22348 -1.76382,-3.4548 -0.79005,-2.46538 -0.62029,-5.47189 -0.16043,-7.95212 0.9673,-5.21701 3.4121,-9.99286 5.89967,-14.61394 1.08312,-1.68661 2.09318,-3.42244 3.24936,-5.05984 4.21754,-5.973 9.30678,-11.38418 15.12635,-15.81255 z" />
    <path
       style="fill:#ff0000"
       id="path17"
       d="m 346.00001,239.7756 c 0.84607,11.57397 0.97101,23.18742 0.99715,34.78734 0.0895,11.02287 -0.13815,22.05091 -0.88057,33.04992 0,0 12.2829,6.25422 12.2829,6.25422 v 0 c -0.76843,-11.20816 -0.57315,-22.46057 -0.39295,-33.68597 0.16561,-11.24566 0.22744,-22.50975 1.09781,-33.72851 z" />
    <path
       style="fill:#ff0000"
       id="path18"
       d="m 357.28842,250.53633 c 5.4034,11.99013 11.41848,23.68622 17.54183,35.32071 3.70797,6.9993 7.73656,13.81535 12.06272,20.44872 0.82313,1.26212 5.13136,7.70782 6.34314,9.29346 0.71578,0.93662 1.54047,1.78475 2.31071,2.67713 4.72415,2.68625 9.12821,6.03658 14.17245,8.05874 0.86005,0.34478 1.80877,-0.69759 2.39031,-1.41896 1.00601,-1.2479 1.57456,-2.80006 2.20051,-4.27569 0.85156,-2.00748 1.50948,-4.092 2.22307,-6.15255 2.72587,-7.87119 2.15061,-6.3749 4.42869,-14.93483 3.12438,-13.2468 5.96607,-26.561 9.1813,-39.78662 1.76593,-7.26406 2.44878,-9.57982 4.34319,-16.49566 0,0 -10.97079,-5.91752 -10.97079,-5.91752 v 0 c -3.86358,18.90065 -8.12549,37.73561 -13.34043,56.31357 -2.1322,6.74569 -4.07363,13.94978 -7.64706,20.1273 -0.6666,1.15239 -1.40981,2.301 -2.39582,3.19551 -0.41947,0.38053 -2.0759,0.10569 -1.6352,0.46141 3.01005,2.42962 6.5574,4.1054 9.8361,6.15811 -0.93923,-0.9025 -1.95705,-1.72976 -2.81769,-2.70749 -1.61085,-1.83001 -5.93643,-7.84072 -7.10636,-9.54061 -4.54061,-6.59743 -8.66964,-13.46989 -12.48302,-20.51083 -1.33922,-2.55293 -2.71594,-5.08654 -4.01766,-7.6588 -4.33108,-8.55836 -8.34743,-17.32952 -11.3099,-26.46423 z" />
    <path
       style="fill:#ff0000"
       id="path19"
       d="m 26.903755,370.89273 c -1.516977,6.88098 -3.300514,13.70374 -5.050126,20.52941 -1.821129,7.91856 -3.510515,16.00608 -3.602088,24.16995 -0.02025,1.80514 0.109781,3.60885 0.164671,5.41327 0.443587,5.994 1.327779,11.93802 2.503862,17.8291 0.637849,3.19502 1.70159,8.0962 2.702698,11.21706 0.615694,1.91937 1.409407,3.77701 2.11411,5.66551 2.610734,5.99806 5.558507,12.06366 10.345813,16.66665 2.417171,2.32412 3.559897,2.84109 6.332078,4.56149 8.301895,5.21709 12.177528,7.64703 19.951551,9.80109 0,0 -11.369469,-8.75149 -11.369469,-8.75149 v 0 c -0.693449,-0.20255 -1.395635,-0.37729 -2.080349,-0.60765 -4.985282,-1.67721 -6.27624,-3.2477 6.41266,4.52405 -2.801032,-1.54462 -4.166128,-2.1119 -6.633808,-4.25517 -5.074174,-4.40709 -8.342853,-10.39786 -11.091767,-16.41959 -0.693614,-1.83915 -1.465659,-3.6506 -2.080842,-5.51745 -0.59362,-1.80141 -1.07192,-3.63964 -1.542201,-5.47712 -1.94673,-7.60622 -3.246387,-15.3844 -3.696007,-23.22629 -0.03335,-1.75249 -0.131617,-3.50494 -0.100046,-5.25746 0.145309,-8.06608 1.647989,-16.0807 3.5547,-23.89129 1.79262,-6.7003 3.65781,-13.39952 6.166877,-19.8735 z" />
    <path
       style="fill:#ff0000"
       id="path20"
       d="m 76.192978,390.47091 c -0.08988,2.35431 -0.347409,4.69749 -0.479942,7.04946 -0.09444,1.67592 -0.125915,3.35528 -0.238436,5.03008 -0.253784,3.77742 -0.737572,8.31959 -1.110889,12.0713 -1.24321,10.33896 -2.245443,20.71853 -4.079669,30.97441 -0.0386,0.15852 -0.617291,3.67262 -1.45815,4.17003 -0.220311,0.13033 -0.680773,-0.72941 -0.447488,-0.62406 4.07261,1.83926 7.748983,4.66958 12.054519,5.86598 0.919342,0.25546 -0.623006,-1.80919 -0.817174,-2.7434 -0.276058,-1.32821 -0.393306,-2.68453 -0.589959,-4.0268 -0.469197,-6.75575 0.166541,-13.61917 3.522215,-19.63825 1.867736,-3.35016 2.6012,-3.67463 5.272538,-6.19056 1.099974,-0.61013 2.144814,-1.33247 3.299924,-1.83038 3.915285,-1.68771 8.360193,-2.0088 12.554833,-1.56831 0.70937,0.0745 1.40962,0.21908 2.11442,0.32862 0.53439,0.19226 1.09159,0.33013 1.60315,0.57679 0.40853,0.19698 1.53427,0.96653 1.13844,0.74514 -3.9172,-2.19089 -7.8034,-4.43673 -11.705103,-6.6551 0,0 13.706273,5.44362 13.706273,5.44362 v 0 c -4.4845,-2.65137 -8.93167,-5.36693 -13.453505,-7.9541 -0.376569,-0.21545 -0.804193,-0.33271 -1.22367,-0.44345 -0.532275,-0.14052 -1.081713,-0.2053 -1.622569,-0.30794 -0.688934,-0.0464 -1.376474,-0.12404 -2.066803,-0.1393 -4.269784,-0.0944 -8.746777,0.56704 -12.610831,2.47402 -1.217582,0.6009 -2.312296,1.42395 -3.468444,2.13592 -0.943734,0.98917 -1.996935,1.88442 -2.831202,2.96751 -4.198351,5.45052 -5.863187,12.42657 -6.397136,19.15312 -0.126048,1.58793 -0.09591,3.1844 -0.143865,4.77659 0.058,1.32539 0.08521,2.65248 0.174003,3.97616 0.06415,0.95634 -0.445328,2.24019 0.284646,2.86135 4.056555,3.45188 8.704403,6.18068 13.367166,8.75551 0.374433,0.20677 0.761538,-0.46489 0.972783,-0.83682 0.53653,-0.94463 0.878853,-4.16365 0.976873,-4.81927 1.312814,-10.44516 2.051821,-20.95393 3.398911,-31.3962 0.523452,-4.41469 0.855446,-7.50382 1.503987,-11.87294 0.235136,-1.58408 0.528551,-3.159 0.778703,-4.74078 0.348383,-2.20292 0.624348,-4.41826 1.192622,-6.58056 z" />
    <path
       style="fill:#ff0000"
       id="path21"
       d="m 98.722879,444.10675 c 3.933991,1.22109 7.991871,1.93484 12.048531,2.61643 1.43085,0.24041 2.85926,0.50836 4.30185,0.66354 1.34621,0.14481 2.70339,0.15694 4.05509,0.23541 1.22574,-0.16885 2.4819,-0.1869 3.67721,-0.50655 2.07613,-0.55521 4.11891,-1.668 5.46671,-3.39421 2.07679,-2.65987 2.86748,-6.60209 3.56419,-9.81025 0.0995,-0.94282 0.27328,-1.88075 0.29858,-2.82848 0.20239,-7.58012 -6.77295,-8.55092 -14.35331,-11.96524 -0.83832,-0.37759 -4.12717,3.01658 -4.14549,3.0335 -0.83079,0.95764 -1.74873,1.84614 -2.49236,2.87293 -1.82571,2.5209 -4.18695,6.7901 -5.51033,9.53698 -1.48643,3.08527 -2.62561,5.87215 -3.38393,9.19706 -0.26203,1.14889 -0.33649,2.33265 -0.50474,3.49897 0.10443,0.92464 0.0489,1.88174 0.31329,2.7739 0.38747,1.30751 1.56316,2.97678 2.76544,3.69535 11.50003,6.87326 10.39305,7.81489 19.01663,8.67951 3.31853,0.27556 6.67625,0.13491 9.77072,-1.22355 1.42435,-0.62528 2.48982,-1.40787 3.76456,-2.25813 0,0 -12.18857,-7.78767 -12.18857,-7.78767 v 0 c -1.34888,0.93887 -1.81112,1.3706 -3.41374,1.98914 -3.0101,1.16176 -6.2464,1.07573 -9.39613,0.71968 -0.77703,-0.12792 -1.56364,-0.20728 -2.33111,-0.38378 -0.73365,-0.16872 -2.78296,-1.07668 -2.16292,-0.64975 3.30531,2.27586 6.85655,4.1721 10.2917,6.24679 0.61657,0.37239 -1.28591,-0.67458 -1.83582,-1.13979 -1.87541,-1.58656 -1.55363,-1.84829 -2.23798,-4.22578 0.04,-1.15025 -0.0349,-2.31028 0.12004,-3.45075 0.90821,-6.68542 4.32766,-12.99798 8.74826,-18.0107 0.8094,-0.91782 1.77219,-1.68802 2.65828,-2.53203 0.73263,-0.47297 1.39208,-1.08557 2.1979,-1.41891 0.45717,-0.18911 1.87853,0.1913 1.48065,-0.10275 -3.53143,-2.60992 -7.42543,-4.68978 -11.13815,-7.03467 0.30463,0.43995 0.7132,0.82379 0.91388,1.31985 0.70314,1.73804 0.44854,2.98362 0.40072,4.84356 -0.56547,3.10927 -1.08653,6.41567 -3.187,8.94866 -2.1579,2.60224 -5.10502,2.99136 -8.25231,3.20572 -1.29493,-0.0891 -2.59554,-0.11697 -3.88481,-0.26724 -1.42211,-0.16576 -2.83307,-0.42028 -4.241078,-0.6799 -4.380513,-0.80772 -8.739714,-1.86411 -12.860983,-3.58096 z" />
    <path
       style="fill:#ff0000"
       id="path22"
       d="m 164.94988,413.39363 c -0.4761,3.41985 -1.40595,6.75102 -2.34612,10.06533 -0.61773,2.17762 -1.21619,4.36164 -1.90145,6.51896 -1.92426,6.05787 -3.20129,9.23188 -5.44459,15.22466 -2.68363,7.05074 -5.69009,13.96735 -8.79379,20.84061 -0.53773,1.19082 -3.43585,7.63397 -4.26043,9.2009 -0.43936,0.83489 -0.98526,1.60922 -1.47789,2.41383 -3.85875,3.67385 -5.25471,4.40266 11.2756,6.27159 1.33034,0.15041 -0.53694,-2.63375 -0.60294,-3.97095 -0.0976,-1.97695 -0.0458,-3.96408 0.11395,-5.93699 0.50245,-6.20705 1.31554,-8.96454 2.63871,-15.12736 2.33829,-9.21465 5.94852,-18.1324 12.14414,-25.45469 1.03446,-1.22258 2.12318,-2.41528 3.35344,-3.44059 0.97235,-0.81037 2.13979,-1.35278 3.20968,-2.02917 2.61899,-0.64933 3.27294,-1.16663 5.93861,-0.49138 0.98879,0.25047 3.70573,1.69181 2.82333,1.18013 -15.01438,-8.7064 -9.4938,-5.66554 -6.04511,-2.109 0.83855,0.86478 1.55508,1.84005 2.33262,2.76008 1.52209,2.17867 3.05075,4.44562 3.91567,6.98648 0.10765,0.31623 0.60018,1.80048 0.15232,2.31274 -0.15483,0.17709 -0.46028,0.0973 -0.69042,0.14591 -6.91342,-1.99962 -13.70653,-4.37864 -20.49726,-6.75629 0,0 10.41363,8.11533 10.41363,8.11533 v 0 c 3.56218,1.24666 7.12147,2.50159 10.68644,3.74026 1.45805,0.50661 7.09907,2.53977 8.94212,2.8489 0.93574,0.15694 1.89763,-0.001 2.84644,-0.002 0.42166,-0.37944 0.97159,-0.65283 1.26499,-1.13831 0.59418,-0.98315 0.24904,-2.32122 -0.0762,-3.27855 -0.92824,-2.73216 -2.6451,-5.15165 -4.20073,-7.54109 -1.08138,-1.36239 -3.60167,-4.75113 -5.07281,-5.72428 -4.87518,-3.22491 -9.91732,-6.20453 -15.05745,-8.98778 -1.70609,-0.9238 -4.34726,-1.11966 -6.21365,-0.69931 -1.08787,0.24502 -2.07365,0.82097 -3.11048,1.23145 -1.02894,0.81971 -2.15868,1.52682 -3.08683,2.45913 -1.14853,1.15368 -2.14721,2.45279 -3.10999,3.76548 -5.74419,7.83179 -9.29226,16.89892 -11.77377,26.23169 -1.36931,5.54731 -2.4295,9.37225 -3.37545,14.96031 -0.32385,1.91312 -0.52482,3.84544 -0.73869,5.77396 -0.14969,1.34981 -1.34229,3.12994 -0.35176,4.05905 3.84741,3.60884 8.73724,5.98689 13.49362,8.26794 0.48721,0.23366 0.50132,-0.95738 0.75199,-1.43607 1.56812,-4.10125 3.02218,-8.24185 4.61569,-12.33414 2.7483,-7.05789 5.62387,-14.06652 8.37462,-21.12351 4.03396,-10.26229 8.16059,-20.48834 12.03514,-30.81231 z" />
    <path
       style="fill:#ff0000"
       id="path23"
       d="m 234.36998,369.66754 c -0.73456,9.39557 -2.71162,18.66589 -5.16415,27.75125 -0.78067,2.89197 -1.65731,5.75717 -2.48597,8.63576 -2.59995,8.24042 -5.46731,16.42382 -8.89129,24.36334 -2.06134,4.77983 -3.6358,7.73371 -5.93743,12.27818 0,0 11.31214,6.39897 11.31214,6.39897 v 0 c 1.22741,-2.8818 4.29355,-10.0498 5.35755,-12.68964 2.62384,-6.50996 3.60011,-9.24685 5.8801,-15.93558 0.97704,-2.86632 1.90889,-5.74785 2.86333,-8.62178 0.9154,-2.84528 1.86534,-5.67968 2.74618,-8.53584 2.72572,-8.83827 5.01975,-17.79616 7.30682,-26.75483 z" />
    <path
       style="fill:#ff0000"
       id="path24"
       d="m 260.02213,421.19693 c -3.43369,3.13998 -7.05071,6.09522 -10.21833,9.51598 -2.8236,3.04925 -3.30689,3.89572 -5.73554,7.19544 -1.99023,3.40509 -5.17336,7.56166 -3.57046,11.78421 0.66333,1.7474 1.40865,2.00185 2.81887,3.08083 4.82834,2.55497 9.50773,5.41385 14.48503,7.66489 0.69955,0.31638 1.54625,0.0617 2.30216,-0.0727 4.35097,-0.7737 6.54305,-4.24527 8.89461,-7.5761 2.80155,-4.43899 4.37892,-9.45733 5.8898,-14.44076 1.04253,-3.43864 0.38573,-1.73843 1.43683,-4.207 0.59422,5.56182 0.13512,-1.28683 -11.86072,-4.99882 -0.92632,-0.28664 0.81649,1.75907 1.22883,2.63669 1.16137,2.47184 2.22794,4.79772 3.54904,7.19411 0.65402,1.18634 1.37854,2.33243 2.0678,3.49865 1.50062,2.21141 2.2693,3.50589 4.00985,5.48128 0.82459,0.93586 2.67117,2.76609 3.81108,3.45585 13.23513,8.00863 9.10147,6.47439 15.89502,8.77607 0.61667,0.11669 1.23334,0.23338 1.85,0.35007 0,0 -11.52315,-8.79072 -11.52315,-8.79072 v 0 c -0.57462,-0.16692 -1.14925,-0.33384 -1.72387,-0.50075 -5.10244,-2.24703 -3.77256,-1.73841 8.79404,5.43112 0.71255,0.40653 -1.39709,-0.8658 -2.04627,-1.36734 -2.60324,-2.01116 -4.62996,-4.58835 -6.49884,-7.27034 -1.89982,-3.07204 -2.40502,-3.68642 -3.93223,-6.96247 -0.51049,-1.09507 -0.96546,-2.21624 -1.39307,-3.34625 -0.31659,-0.83662 -0.14243,-1.98685 -0.83792,-2.54939 -12.70524,-10.27638 -9.89245,-12.86408 -14.15969,-8.01006 -1.16248,6.49265 -2.82045,12.96578 -6.53101,18.52404 -1.82506,2.34719 -3.44558,4.75104 -6.396,5.78792 -0.67829,0.23837 -1.40271,0.36469 -2.12119,0.3906 -0.69305,0.025 -2.62471,-0.65131 -2.06666,-0.23958 3.24749,2.39608 6.8806,4.21983 10.3209,6.32974 -1.34896,-0.60932 -2.36284,-0.8382 -3.26175,-2.11249 -2.52781,-3.58343 0.58351,-7.90385 2.28588,-11.01385 0.8451,-1.18493 1.62741,-2.41726 2.53529,-3.55481 3.90481,-4.89258 8.87212,-8.86054 14.14321,-12.18348 z" />
    <path
       style="fill:#ff0000"
       id="path25"
       d="m 305.87321,426.97595 c -1.94503,1.67652 -3.74017,3.91382 -4.92272,6.18846 -1.16365,2.2383 -1.84365,4.39857 -2.69203,6.76702 -0.88243,3.16872 -1.12012,3.82925 -1.79255,6.95541 -0.48062,2.23443 -1.04783,4.71274 -0.17693,6.94861 0.21199,0.54425 0.60389,0.99994 0.90583,1.49991 4.65157,2.75857 9.19881,5.70114 13.95469,8.2757 0.75628,0.4094 4.23581,0.60895 4.82861,0.64135 3.54479,0.1938 7.10076,0.16538 10.64886,0.15025 3.08708,-0.003 6.18002,-0.0438 9.22742,-0.59096 1.40106,-0.25155 2.46078,-0.48851 3.70858,-1.14853 0.4235,-0.224 0.79175,-0.53967 1.18763,-0.8095 0,0 -12.37079,-7.90889 -12.37079,-7.90889 v 0 c -0.31072,0.20828 -0.59999,0.4528 -0.93214,0.62485 -1.02821,0.5326 -2.11386,0.81146 -3.24663,1.03466 -2.90007,0.57143 -5.85698,0.6118 -8.80184,0.6432 -3.59613,-0.006 -7.20783,-0.005 -10.78156,-0.4805 -0.92676,-0.12332 -1.85392,-0.27174 -2.75813,-0.50942 -4.06316,-1.06804 -13.5484,-7.75685 8.73403,5.77668 -0.3948,-0.34272 -0.876,-0.60601 -1.18442,-1.02816 -1.35552,-1.85535 -0.95039,-4.44106 -0.62945,-6.51649 0.49282,-3.18689 0.72574,-3.64585 1.61074,-6.82983 0.42057,-1.12121 0.77906,-2.26771 1.26171,-3.36363 1.28729,-2.92301 3.15978,-5.80704 5.82155,-7.6703 0.28418,-0.19893 0.61159,-0.32755 0.91738,-0.49132 z" />
    <path
       style="fill:#ff0000"
       id="path26"
       d="m 343.91272,458.34029 c 1.26449,-0.30546 2.62382,-0.0864 3.87497,-0.46758 0.84413,-0.25719 3.08826,-1.38927 3.78027,-1.89752 0.64344,-0.47259 1.17956,-1.07614 1.76934,-1.6142 0.50032,-0.61387 1.0622,-1.18233 1.50096,-1.8416 1.61218,-2.42246 2.81793,-5.7675 2.95063,-8.68606 0.029,-0.63819 -0.0543,-1.27655 -0.0814,-1.91482 -0.15722,-0.56903 -0.22894,-1.16895 -0.47165,-1.7071 -0.39177,-0.86863 -1.32255,-2.04867 -2.17162,-2.54207 -4.62763,-2.68916 -9.25336,-5.39653 -14.04198,-7.78727 -0.52015,-0.25969 -1.16479,-0.16516 -1.74165,-0.0928 -0.65593,0.0823 -1.27024,0.36685 -1.90536,0.55028 -0.6719,0.39659 -1.39525,0.71671 -2.0157,1.18976 -3.15996,2.40925 -6.24849,6.75174 -8.12085,10.21849 -0.52627,0.97441 -0.95867,1.99667 -1.438,2.995 -1.32488,3.62287 -2.88083,7.98647 -1.11476,11.76956 0.26092,0.5589 0.65961,1.04245 0.98942,1.56367 5.05194,5.07404 1.92255,2.16055 15.41267,9.60546 0.72328,0.39917 3.48063,0.9835 4.24697,1.11883 1.64817,0.29107 2.91735,0.37846 4.57987,0.53661 2.79986,0.18971 5.60577,0.24562 8.41088,0.28639 0,0 -11.71667,-8.52946 -11.71667,-8.52946 v 0 c -2.73829,-0.0111 -5.48096,-0.0324 -8.20792,-0.31474 -2.23313,-0.2754 -4.4559,-0.55122 -6.5875,-1.3208 -0.66875,-0.24145 -2.55641,-1.23271 -1.95449,-0.85426 14.24702,8.95755 13.40922,8.40841 9.15934,5.20567 -0.97941,-1.04392 -1.41744,-1.29586 -1.91408,-2.6826 -1.12022,-3.12792 -0.16896,-6.49913 0.88949,-9.48121 0.44293,-0.965 0.83308,-1.95602 1.32879,-2.89501 1.79221,-3.39488 4.68128,-7.33971 8.04771,-9.32617 0.58825,-0.34712 1.26179,-0.52346 1.89269,-0.7852 0.55782,-0.0436 1.11545,-0.17188 1.67346,-0.13087 0.52288,0.0384 1.9677,0.65429 1.52961,0.36628 -3.55884,-2.33974 -7.3141,-4.36617 -10.96068,-6.56667 -0.44493,-0.26848 0.929,0.47325 1.35532,0.7704 1.39307,0.97099 1.12566,0.89242 1.86557,2.37974 0.0875,0.56854 0.2371,1.13095 0.26253,1.70562 0.11814,2.66966 -0.95758,5.7869 -2.45703,7.97188 -0.40243,0.58641 -0.91661,1.08772 -1.37492,1.63158 -0.54846,0.43743 -1.0531,0.93633 -1.64539,1.31229 -2.31916,1.47213 -5.04815,1.60093 -7.70499,1.46488 z" />
    <path
       style="fill:#ff0000"
       id="path27"
       d="m 383.8474,362.99704 c 2.99,4.27804 6.57021,8.08725 10.15501,11.863 3.66927,3.86473 4.80508,4.99072 8.54169,8.79862 5.8276,5.97483 11.51361,12.21944 15.81945,19.41706 2.99824,5.01184 3.27464,6.30333 5.43896,11.68275 0.58409,2.04965 1.31056,4.06399 1.75228,6.14896 1.36276,6.43239 1.378,13.06114 -1.04631,19.26777 -2.50976,6.4254 -4.48898,8.09404 -8.75086,13.52498 -2.19675,2.04046 -4.26835,4.22456 -6.59027,6.12137 -7.27266,5.94117 -15.62317,10.56757 -24.33372,14.01602 -6.6217,2.62149 -9.55682,3.19937 -16.28842,4.98406 -8.54267,1.74904 -4.47361,1.02449 -12.19601,2.23548 0,0 10.89803,7.6072 10.89803,7.6072 v 0 c 7.25735,-1.65784 3.41323,-0.7253 11.52222,-2.83905 6.54224,-1.99334 9.50386,-2.73429 15.97422,-5.41125 8.80931,-3.64464 17.18801,-8.28711 24.64397,-14.26645 2.40041,-1.92502 4.5731,-4.11793 6.85965,-6.17689 4.26112,-5.21326 6.76296,-7.50875 9.45154,-13.70505 2.78741,-6.42405 2.868,-13.04575 1.52785,-19.80425 -0.42148,-2.12554 -1.13349,-4.183 -1.70024,-6.2745 -2.04405,-5.27292 -2.48091,-6.99482 -5.31697,-11.92188 -4.18742,-7.27478 -9.79728,-13.6264 -15.62703,-19.60716 -3.64328,-3.70644 -4.84621,-4.86845 -8.34288,-8.66738 -2.75043,-2.98818 -5.49612,-6.02925 -7.8084,-9.37883 -0.33795,-0.48956 -0.62918,-1.00978 -0.94376,-1.51467 z" />
    <path
       style="fill:#ff0000"
       id="path28"
       d="m 501.49876,1.6892804 c -0.1619,0.4118788 -0.4863,1.2701381 -0.69441,1.6736466 -0.089,0.1725796 -0.17704,0.3533032 -0.31481,0.49015 -0.0416,0.041285 -0.18563,0.054856 -0.17572,-0.00288 0.0535,-0.3115026 0.048,-1.0343107 0.32888,-0.8893125 4.32746,2.2343082 8.34913,5.0168078 12.52369,7.5252115 -0.35364,-0.5624308 -0.36244,-1.2534868 -0.53482,-1.8819816 -1.53683,-5.6032368 -8.69016,-6.2631501 -13.64502,-9.21107984 -0.2496,0.24349374 -0.53621,0.45408178 -0.74879,0.73048121 -0.88614,1.15215103 -1.0273,2.82690473 -1.13378,4.21812603 0.0352,0.3282194 0.0397,0.6611818 0.10551,0.9846582 1.11919,5.503118 11.85977,8.53445 13.63003,9.457565 0.30227,0.157619 0.54658,-0.423594 0.74448,-0.70116 0.22272,-0.312364 0.33062,-0.692374 0.49594,-1.038561 0.26596,-0.692063 0.28984,-1.455505 0.51572,-2.156994 0.0188,-0.05838 0.005,0.123684 -0.007,0.183884 -0.20734,1.063222 -0.45944,0.688035 0.20297,1.174622 0.1981,0.07934 0.38145,0.222785 0.5943,0.238022 0.25076,0.01795 0.50107,-0.06621 0.74062,-0.142459 1.00394,-0.319569 1.51515,-1.149919 1.93356,-2.047265 0.081,-0.143412 0.40064,-1.8122296 0.35534,-1.8369626 -4.41291,-2.4096909 -8.94177,-4.6062066 -13.49752,-6.733543 -0.12072,-0.05637 -0.28162,0.4448149 -0.24307,0.3172838 0.0937,-0.3101159 0.2754,-0.5865091 0.4131,-0.8797636 17.59662,11.1427414 12.50091,12.1001744 12.42332,6.2022156 -0.0118,-0.8969729 0.03,-1.7941996 0.053,-2.6906712 -0.0738,-5.705984 0.16882,-1.9342025 -13.53806,-7.828651 -0.40688,-0.1749733 -0.63983,0.6141881 -0.9318,0.9472321 -1.1134,1.27000974 -2.03643,2.69950116 -2.97128,4.1005784 -4.20928,5.5330888 -3.11888,1.6297511 11.86175,9.0950795 0.17795,0.08868 0.20262,-0.343408 0.32462,-0.500398 0.10401,-0.133823 0.23368,-0.245554 0.35052,-0.368331 0.37289,-0.4110651 0.73436,-0.870162 1.25828,-1.0995932 0.12449,-0.054517 0.5137,-0.040811 0.39395,-0.1050808 -4.97203,-2.668469 -17.48035,-8.88035925 -12.32044,-6.3167495 0.68441,2.1667672 -0.048,4.4443152 -0.23278,6.6376418 -0.0297,0.3527773 -0.30824,0.8638077 -0.0149,1.0619777 4.22433,2.853544 8.76589,5.206698 13.14883,7.810047 2.27607,-2.582629 3.30473,-5.946894 4.24983,-9.1929297 0.0656,-0.423865 0.17444,-0.8432668 0.19665,-1.271595 0.31166,-6.0119828 -12.66313,-8.8976408 -13.88308,-9.4911027 -0.29909,-0.1455003 -1.62577,1.06488207 -1.76534,1.18199303 -1.1224,1.19869996 -1.998,2.95487427 -1.7852,4.65643307 0.0439,0.3512814 0.19157,0.6816254 0.28736,1.0224381 3.74917,4.8241643 1.2161,1.7766943 14.13462,8.5085502 0.56785,0.295911 1.71065,-0.478036 2.03629,-0.750133 0.80543,-0.673004 0.92322,-1.105012 1.41523,-2.015314 0.2797,-0.8354597 0.54845,-1.4302416 0.58729,-2.3175732 0.0138,-0.3162493 -0.072,-1.7338225 -0.46755,-1.9865865 -12.59129,-8.0467576 -8.24607,-7.9702706 -14.31246,-7.8393973 -1.75967,0.1188342 -3.15881,1.08751548 -3.67993,2.8382715 -0.13164,0.4422347 -0.15565,0.9095982 -0.23347,1.3643973 0.0687,0.5741957 0.0801,1.1581979 0.20611,1.722587 0.20021,0.8965132 1.31901,3.8993547 2.14099,4.426226 13.10523,8.4001432 8.53781,9.5469862 14.58671,7.6152492 0.32366,-0.380609 0.72173,-0.708823 0.97098,-1.141829 1.34636,-2.33894 1.23735,-6.1011573 0.99942,-8.7026255 -0.10505,-0.4471754 -0.16887,-0.9060945 -0.31516,-1.3415263 -1.75779,-5.23202101 -12.50665,-8.3461008 -13.91088,-9.0921704 -0.3781,-0.2008848 -0.86342,0.076633 -1.26418,0.2273148 -1.19122,0.4478864 -1.72436,1.096396 -2.66205,1.9348358 -0.39798,0.5271003 -0.84364,1.02137489 -1.19393,1.58130084 -1.37551,2.19870756 -2.31144,5.28678246 -2.72463,7.84420206 -0.0814,0.5037564 -0.0939,1.0162449 -0.14091,1.5243674 0.0282,0.7147993 0.14765,2.3990163 0.90007,2.8491833 7.23778,4.330305 9.08021,9.148496 14.77149,7.217232 0,0 -12.20493,-8.568875 -12.20493,-8.568875 v 0 c -0.66874,-0.05614 -0.34316,0.02355 -0.97491,-0.246454 4.06163,2.386479 8.12327,4.772957 12.1849,7.159436 0.2156,0.128965 -0.48224,-0.156684 -0.69665,-0.287618 -0.77741,-0.474734 -0.63928,-0.579563 -0.96397,-1.453505 -0.0249,-0.457829 -0.10218,-0.915795 -0.0748,-1.373489 0.13601,-2.277911 1.07524,-5.3399858 2.36907,-7.2236488 0.31301,-0.4556963 0.72236,-0.8370887 1.08354,-1.255633 0.77581,-0.5098685 1.25352,-1.0371019 2.23142,-0.9882526 0.31264,0.015617 1.1531,0.4710702 0.88866,0.3035772 -3.83897,-2.4314989 -7.75507,-4.73900858 -11.63261,-7.1085129 0.24449,0.2391077 0.54311,0.4332207 0.73345,0.71732303 0.2306,0.34419004 0.33822,0.7564267 0.50733,1.13464006 0.0921,0.49527738 0.21609,0.98568081 0.27639,1.48583211 0.19467,1.6146583 0.17924,4.5263857 -0.78832,5.931674 -0.0915,0.1328253 -0.28118,0.1579858 -0.42178,0.2369788 -4.57312,-2.0114338 -2.96386,-1.3323477 10.96407,6.6896821 0.39944,0.230066 -0.75204,-0.54861 -1.04875,-0.901384 -0.95485,-1.135267 -1.46179,-2.621066 -1.7768,-4.0412755 0.0348,-0.3115302 0.0262,-0.6310538 0.1045,-0.9345908 0.32915,-1.2760677 1.51049,-1.4488634 2.62972,-1.2276231 5.0498,2.1399316 0.60766,0.2990938 -11.18958,-6.87815992 -0.21083,-0.12826347 0.47916,0.16690661 0.66064,0.33413397 0.71251,0.65655525 0.32553,1.65475825 0.0918,2.41335305 -0.36011,0.6164667 -0.68683,1.3350734 -1.55055,1.1950662 -0.25404,-0.041178 -0.94606,-0.396372 -0.72572,-0.2634177 11.33413,6.8389568 16.20651,8.6051588 11.04892,6.6789038 -0.19611,-0.132856 -0.45149,-0.205216 -0.58834,-0.398567 -0.65513,-0.9256446 0.3044,-2.6766245 1.0264,-3.2940448 0.18202,-0.085596 0.3473,-0.2259194 0.54606,-0.256788 0.1826,-0.028359 0.365,0.057967 0.5475,0.08695 -4.01571,-2.4069011 -8.03141,-4.8138023 -12.04712,-7.22070341 -0.20179,-0.12408448 0.49856,0.06709874 0.67349,0.22683529 0.51107,0.46667908 0.36899,1.23996502 0.38046,1.81403012 -0.35101,1.6430743 -0.77612,3.2335996 -1.49593,4.762716 -0.26736,0.5679609 -0.97598,1.8789064 -1.50529,2.3655948 -0.0798,0.073348 -0.21664,0.00654 -0.32496,0.00981 4.03505,2.537589 7.99444,5.199662 12.10514,7.612769 0.2523,0.148108 -0.39647,-0.47219 -0.43522,-0.762173 -0.076,-0.568534 0.0443,-1.147141 0.10388,-1.717622 0.1913,-1.830838 0.69471,-3.610067 0.76512,-5.4532663 -0.025,-0.3582716 0.23398,-0.8919007 -0.0751,-1.0748147 -9.96401,-5.8968081 -10.7119,-10.4436421 -15.5105,-5.3650327 -0.15486,0.1571816 -0.30599,0.3181185 -0.46457,0.4715449 -0.077,0.074499 -0.33311,0.1558644 -0.24175,0.2118273 4.25607,2.6069608 8.67522,4.9416907 12.92584,7.5575265 0.10196,0.06275 -0.27485,0.344131 -0.28032,0.224536 -0.027,-0.590208 1.02056,-0.9693985 0.83851,-1.5615905 0.72157,-1.1392295 0.94316,-1.5906502 1.86297,-2.6141282 0.3136,-0.3489535 0.64145,-0.6912696 1.01511,-0.9749807 0.21489,-0.1631572 0.95414,-0.1999146 0.72988,-0.3499358 -10.13453,-6.7797211 -17.06892,-8.9219939 -12.00836,-7.334031 0.0863,0.887151 0.0526,1.74814542 0.005,2.63826452 -0.35041,6.49554488 -1.89647,1.22593888 12.53474,9.97172968 4.08857,-4.4150852 2.0658,0.540252 -12.39337,-7.7444805 -0.0626,-0.035888 0.45015,-0.5916944 0.61414,-0.2240595 0.0471,0.1055926 -0.0106,0.2309977 -0.0159,0.3464966 -0.46388,1.1385337 -1.13063,0.317038 -1.93314,-0.026419 -0.19071,-0.057919 -0.38219,-0.2341399 -0.57213,-0.1737572 -1.40718,0.4473386 -1.14058,1.8400089 -1.44967,2.9552378 -0.0333,0.2962836 0.0386,-0.3739252 0.0986,-0.3397529 4.16009,2.367716 8.15405,5.0169087 12.27138,7.4582167 0.18939,0.112297 -0.32894,-0.294711 -0.47208,-0.462008 -0.48814,-0.57049 -0.4187,-0.563755 -0.67294,-1.247746 -0.0198,-0.734321 0.0312,-1.4214859 0.20365,-2.1394276 0.0435,-0.1812391 0.0951,-0.3612335 0.16193,-0.5352284 0.018,-0.046813 0.0824,-0.1701126 0.09,-0.1205395 0.0184,0.1203324 -0.0355,0.2408657 -0.0532,0.3612986 -4.10163,-2.4800936 -8.18317,-4.9937048 -12.30488,-7.4402808 -0.17575,-0.1043195 0.33026,0.2481916 0.45768,0.407983 0.58266,0.7306932 0.69506,1.6932269 0.65223,2.5895981 1.35378,0.8630249 10.63026,12.5529476 13.87643,7.0333536 0.39031,-0.66366 0.58964,-1.4259435 1.0217,-2.068302 z" />
    <circle
       style="fill:#f80000;fill-opacity:1"
       id="path29"
       cx="461.93588"
       cy="52.588333"
       r="42.491371" />
    <circle
       id="path30"
       style="fill:#000000;stroke:#000000;fill-opacity:1"
       cx="-26.504519"
       cy="142.61955"
       r="0.2117961" />
    <circle
       id="path31"
       style="fill:#000000;stroke:#000000"
       cx="448.89401"
       cy="35.760067"
       r="0.2117961" />
    <circle
       id="path32"
       style="fill:#000000;stroke:#000000"
       cx="463.19803"
       cy="36.180771"
       r="0.2117961" />
    <path
       style="fill:#000000;fill-opacity:1"
       id="path33"
       d="m 456.84127,39.36976 c 0.49351,-0.56709 0.8806,-1.241067 0.88258,-2.021274 10e-4,-0.479953 -0.17582,-1.196587 -0.64626,-1.47101 -4.43317,-2.585998 -8.96676,-4.995857 -13.45014,-7.493785 -0.29168,0.179386 -0.61671,0.31338 -0.87504,0.538158 -0.95427,0.830338 -1.63866,2.393941 -1.57424,3.661667 0.0147,0.290166 0.11798,0.568978 0.17697,0.853467 4.36126,2.640257 8.57081,5.549138 13.08378,7.920772 0.29984,0.157573 0.55977,-0.3871 0.80258,-0.623275 0.89653,-0.872026 1.18627,-1.926452 1.27062,-3.127579 -0.73493,-5.838806 -9.14724,-6.694024 -13.77656,-9.167402 -0.15604,-0.08337 -1.55317,0.251057 -1.70102,0.346071 -0.31932,0.205215 -0.53641,0.537206 -0.80461,0.805808 -1.07197,1.466593 -1.31604,3.412478 -0.13423,4.907218 0.18836,0.23824 0.43015,0.428862 0.64523,0.643293 -3.82737,-10.488506 9.62722,9.454279 14.54134,7.196052 1.30212,-0.598372 1.96727,-2.066971 2.48047,-3.302113 0.15408,-0.595721 0.29298,-0.902845 0.2139,-1.533788 -0.0428,-0.341555 -0.24198,-0.973305 -0.59228,-1.174009 -4.43927,-2.543525 -8.95104,-4.958366 -13.42657,-7.43755 0,0 11.7839,9.144849 11.7839,9.144849 v 0 c -4.09922,-2.355963 -8.2355,-4.648585 -12.29766,-7.067888 -0.15632,-0.0931 0.36117,0.04451 0.54179,0.06643 0.17919,0.02175 0.69505,0.0036 0.80492,0.278198 0.0644,0.161058 -0.009,0.34682 -0.0139,0.52023 -0.18469,0.605997 -0.40071,1.383546 -1.0123,1.71995 -0.38547,0.212032 -0.8288,0.04491 -1.21057,-0.02449 4.00042,2.334763 8.00084,4.669526 12.00126,7.004289 -0.25996,-0.09585 -0.5342,-0.15947 -0.77988,-0.287555 -0.78898,-0.411321 -1.69275,-1.259316 -1.31981,-2.250508 0.0719,-0.191058 0.2383,-0.331511 0.35744,-0.497267 0.42469,-0.156648 0.45783,-0.225082 0.98028,-0.111552 0.21966,0.04774 0.82247,0.35606 0.63069,0.238783 -3.98844,-2.439042 -8.04226,-4.770091 -12.03022,-7.209915 -0.1508,-0.09226 0.3591,0.06076 0.50585,0.159334 0.12864,0.08641 0.18788,0.246503 0.28181,0.369754 0.1503,0.428672 0.23109,0.455506 0.10076,0.921157 -0.0581,0.207559 -0.23105,0.586855 -0.42308,0.488976 -0.0971,-0.0495 -0.21239,-0.360517 -0.11876,-0.304695 4.09867,2.443657 8.12795,5.001871 12.19193,7.502806 -0.28892,-0.217868 -0.63982,-0.371075 -0.65521,-0.80689 -0.0109,-0.309015 0.29276,-1.416926 0.77754,-1.402493 0.12293,0.0037 0.20876,0.130067 0.31314,0.1951 -4.05591,-2.347212 -8.15815,-4.616124 -12.16772,-7.041638 -0.19306,-0.116786 0.44763,0.05717 0.67127,0.08708 0.0317,0.0042 0.6891,0.0092 0.72025,0.250871 0.0314,0.243431 -0.41274,0.607939 -0.51663,0.713085 z" />
    <path
       style="fill:#000000;fill-opacity:1"
       id="path34"
       d="m 460.72997,30.951003 c -0.14097,2.431342 -0.8067,4.81651 -0.68263,7.258752 1.16559,5.693404 7.79883,5.800381 13.70858,8.729456 0.25196,0.124878 1.14069,-1.169806 1.16068,-1.205239 0.15466,-0.274118 0.24076,-0.58162 0.36114,-0.872431 0.2183,-0.908532 0.32742,-1.843167 -0.0119,-2.743175 -0.15604,-0.413893 -0.61174,-1.170497 -1.02492,-1.414116 -4.4552,-2.626839 -8.98523,-5.124634 -13.47785,-7.686951 -0.89235,-0.253375 -0.50879,-0.09462 -1.16996,-0.426778 0,0 11.76424,9.252503 11.76424,9.252503 v 0 c 0.61409,0.177491 0.26787,0.05829 1.0255,0.39372 -3.98326,-2.332399 -7.97963,-4.642565 -11.9498,-6.997198 -0.22016,-0.130576 0.46926,0.205556 0.69663,0.323142 0.8804,0.455308 1.3262,1.023031 1.14676,2.049523 -0.0285,0.08251 -0.0913,0.541976 -0.33805,0.517894 -0.0806,-0.0079 -0.25576,-0.197082 -0.18572,-0.156489 4.17407,2.419177 8.35464,4.827632 12.50095,7.294067 0.14828,0.0882 -0.35059,-0.05731 -0.4947,-0.152154 -0.15091,-0.09932 -0.23773,-0.272083 -0.35659,-0.408125 -0.0807,-0.219176 -0.20045,-0.427709 -0.24206,-0.657529 -0.34229,-1.890544 0.39055,-4.314999 0.71864,-6.178101 z" />
    <path
       style="fill:#000000;fill-opacity:1"
       id="path35"
       d="m 429.60629,50.906608 c 0.33657,3.960555 0.31473,7.937714 0.27849,11.908561 -0.0818,2.971372 0.0828,6.000369 1.79362,8.548087 0.29948,0.445962 0.67424,0.836462 1.01135,1.254693 1.55493,1.503255 3.26776,2.889772 5.16108,3.950677 14.31771,8.022799 8.99843,6.372714 15.92077,8.330067 3.12169,0.819833 6.33465,0.969603 9.54222,1.041895 2.75687,0.03229 5.52974,0.115026 8.25361,-0.362335 2.22399,-0.356141 4.38341,-0.941465 6.40328,-1.942304 2.42519,-1.379553 4.61712,-3.083529 6.66194,-4.972209 2.02956,-2.019292 3.80058,-4.284175 5.27651,-6.735154 0.69174,-1.365527 0.6402,-2.901637 0.65359,-4.390927 0,0 -13.11301,-6.690315 -13.11301,-6.690315 v 0 c -0.002,1.246851 0.0607,2.52938 -0.34128,3.728411 -1.1921,2.428019 -2.95804,4.529535 -4.91837,6.378695 -1.98824,1.766117 -4.08317,3.424177 -6.52595,4.52603 -1.95328,0.820488 -4.01873,1.315458 -6.11197,1.6306 -2.67077,0.302526 -5.35552,0.266935 -8.03951,0.202567 -3.10273,-0.112219 -6.21768,-0.359125 -9.19812,-1.295799 -5.66953,-2.048768 -2.08423,-0.873008 9.12637,5.795432 0.46162,0.274588 -0.93787,-0.524159 -1.39832,-0.800707 -1.10423,-0.663204 -1.62704,-1.015562 -2.65468,-1.796262 -0.41772,-0.317351 -0.82081,-0.653523 -1.23122,-0.980284 -0.37375,-0.329483 -0.78609,-0.619787 -1.12125,-0.98845 -2.00764,-2.208289 -2.35812,-5.066567 -2.37461,-7.922687 -0.0351,-3.875978 -0.0696,-7.759955 0.27848,-11.624766 z" />
    <path
       style="fill:#000000;fill-opacity:1"
       id="path36"
       d="m 447.95747,74.640736 c 0.41742,-0.01843 1.88952,-0.09144 2.2198,-0.06732 1.47977,0.108061 3.48533,0.729519 4.88981,1.233489 0.34132,0.152919 0.68021,0.311393 1.02397,0.458758 1.62232,0.69547 0.33565,0.05415 1.79009,0.87462 0.27651,0.155981 1.11112,0.614682 0.83607,0.456146 -13.3235,-7.679544 -15.63759,-9.068688 -11.03806,-6.31987 0.20688,0.125932 0.41377,0.251864 0.62065,0.377796 0.15285,0.103532 0.30187,0.212944 0.45854,0.310598 0.0707,0.04404 0.14264,0.08972 0.22234,0.113804 0.0157,0.0047 0.0451,-0.04765 0.0328,-0.03669 -0.63896,0.573065 0.0777,-0.03805 -0.81036,0.701637 -0.19772,0.117138 -0.40002,0.226886 -0.59317,0.351413 -0.22761,0.14674 -0.43574,0.323237 -0.66837,0.461893 -0.97998,0.584116 -2.0908,0.788525 -3.19696,0.985434 -1.63055,0.0564 -3.69039,0.6104 -5.23075,-0.1141 -0.17858,-0.084 -0.31432,-0.238726 -0.47149,-0.35809 4.18511,2.620643 8.41252,5.174916 12.55533,7.861928 0.12309,0.07983 0.0401,0.367721 0.18316,0.40021 0.29332,0.06661 0.5918,-0.10816 0.88862,-0.156823 1.22146,-0.200255 1.43096,-0.09989 2.38993,-0.916761 0.11543,-0.338431 0.31224,-0.659343 0.3463,-1.015293 0.11113,-1.161172 -1.25713,-2.023599 -2.03252,-2.615885 0,0 -13.80644,-5.360425 -13.80644,-5.360425 v 0 c 0.67605,0.339991 0.85862,0.395101 1.45722,0.832532 0.60206,0.439953 0.68352,0.705011 1.37887,0.183273 -0.9047,0.473441 -2.06729,0.271531 -2.96555,0.742527 -0.42713,0.223962 -1.5095,0.5912 -1.13589,0.896174 3.88086,3.16787 8.32284,5.57819 12.48426,8.367285 2.04442,0.164473 4.11606,0.0541 6.13489,-0.305062 1.78876,-0.481822 3.44907,-1.187544 4.89794,-2.370687 1.39193,-1.208583 2.60849,-2.58718 0.67502,-4.013132 -5.88234,-3.483604 -11.53515,-7.612893 -18.0574,-9.788173 -1.23131,-0.321977 -2.46298,-0.639081 -3.73231,-0.776532 -1.09844,-0.118945 -1.62826,-0.08659 -2.71682,-0.117058 -0.36486,-0.01021 -0.72944,-0.02871 -1.09417,-0.04307 z" />
    <path
       style="fill:#000000;fill-opacity:1"
       id="path37"
       d="m 425.76886,54.82472 c 0.23624,5.240931 1.53453,10.327173 3.04472,15.324039 1.3635,4.272995 3.05382,8.540489 5.50596,12.32341 0.40187,0.619958 0.85693,1.203762 1.2854,1.805643 3.04013,3.528275 6.16115,4.861546 10.65634,5.346839 2.93978,0.261746 5.55927,-0.334122 8.36523,-1.134056 2.39578,-0.690978 4.80504,-1.29762 7.25414,-1.768099 2.79633,-0.536357 5.47487,-1.516601 8.14785,-2.473412 1.48294,-0.499004 2.91974,-1.111286 4.42312,-1.553645 1.01864,-0.420474 2.09522,-0.737497 3.06684,-1.270078 0.74162,-0.406509 1.43621,-0.951392 2.19577,-1.333523 2.29006,-1.29099 4.38809,-2.880396 6.51812,-4.41133 1.05948,-0.85474 2.22698,-1.54746 3.39463,-2.238675 9.19148,-5.458352 1.47221,-18.457072 -7.71928,-12.99872 v 0 c -1.54791,0.921476 -3.08802,1.86039 -4.5111,2.970221 -1.69749,1.224784 -3.36313,2.506437 -5.18139,3.551484 -0.3425,0.201092 -0.68894,0.395637 -1.02752,0.603274 -0.21119,0.129516 -0.45092,0.228032 -0.6213,0.407887 -0.10042,0.106004 0.26307,-0.128594 0.4013,-0.175641 0.0534,-0.01817 -0.0927,0.06567 -0.1444,0.0882 -0.79777,0.347744 -0.53064,0.104805 -0.78165,0.346399 -1.73443,0.537883 -3.41739,1.200438 -5.12868,1.78793 -1.94423,0.70349 -3.88932,1.441212 -5.91875,1.859735 -2.87132,0.563592 -5.70498,1.262384 -8.51677,2.070484 -0.93806,0.268068 -1.85941,0.646391 -2.84771,0.615623 -0.77738,0.02195 0.4008,0.323391 0.14407,0.738438 -0.83504,-1.020398 -1.43983,-2.177062 -2.02845,-3.355119 -0.99781,-1.996984 -1.87628,-4.055529 -2.47092,-6.212089 -1.10065,-3.570477 -2.05631,-7.181398 -2.38757,-10.915222 0,-10.69004 -15.118,-10.69004 -15.118,0 z" />
    <path
       style="fill:#000000;fill-opacity:1"
       id="path38"
       d="m 442.59712,34.109446 c 0.0122,1.356211 -0.0396,2.727992 0.14736,4.075961 0.0716,0.516175 0.10039,1.047691 0.27339,1.539251 0.33863,0.962209 0.83412,1.861806 1.25118,2.792709 4.4869,-0.641919 9.36412,0.01394 13.46069,-1.925758 1.3673,-0.647408 0.2483,-3.023317 0.18366,-4.534761 -0.0241,-0.562492 -0.26849,-1.094857 -0.44729,-1.628718 -0.4386,-1.309589 -1.02875,-2.585508 -1.84832,-3.706276 -0.51537,-0.704766 -1.15931,-1.305843 -1.73896,-1.958765 -0.37695,-0.327763 -0.7539,-0.655526 -1.13085,-0.983288 -0.0871,-0.08111 -0.32742,-0.342364 -0.26137,-0.243331 0.62284,0.93391 1.95509,1.632748 1.93657,2.755149 -0.0992,6.010322 -1.12597,9.976049 -7.3967,9.969866 1.94171,0.552058 3.90451,0.93691 5.9397,0.619927 0.78081,-0.121614 1.53316,-0.392698 2.27765,-0.657639 0.374,-0.133092 0.7103,-0.354707 1.06545,-0.532061 -2.19174,0.132747 -4.56697,1.286102 -6.57521,0.398239 -2.08713,-0.922737 -4.62964,-7.516015 -4.3989,-5.245708 0.0359,0.353181 0.043,0.71345 0.13443,1.056483 0.25737,0.965947 0.48308,1.953417 0.90855,2.858002 0.41842,0.889611 1.06717,1.651385 1.60075,2.477077 0.76555,0.682557 1.43644,1.489101 2.29663,2.047672 3.80046,2.467832 9.48324,2.833478 12.86703,-0.785376 1.21969,-1.304416 1.52442,-3.22997 2.28663,-4.844955 -0.0546,-1.089424 0.0784,-2.204674 -0.16367,-3.268274 -0.68965,-3.030664 -2.66758,-5.206141 -5.25118,-6.756101 -1.36466,-0.818689 -2.28191,-0.954438 -3.81765,-1.381815 -0.66408,-0.06855 -1.33039,-0.293117 -1.99224,-0.205642 -3.19211,0.421893 -5.29921,0.922973 -7.29521,3.623099 -0.82407,1.114766 -1.31021,2.46665 -1.69062,3.799719 -0.5871,2.057359 -0.0458,3.560559 0.34484,5.556751 3.06949,10.239884 17.55087,5.898978 14.48139,-4.340906 v 0 c 0.0617,0.829645 0.23511,1.557696 -0.13553,2.353062 -0.36148,0.775698 -0.72198,1.584388 -1.3047,2.211136 -1.37802,1.482146 -3.69416,2.309775 -5.67439,1.763682 -1.44587,-0.704076 -2.34308,-2.274548 -2.52712,-3.854822 -0.0724,-0.621628 0.0639,-1.250029 0.0958,-1.875043 0.69639,-1.201274 1.05997,-2.671752 2.08918,-3.603823 1.98297,-1.795816 4.70415,-2.327342 6.65535,-0.561571 0.27055,0.244846 0.45394,0.571437 0.68091,0.857155 0.56811,1.353944 0.27603,0.448672 0.53794,1.988654 0.0382,0.22443 -0.0612,-0.451177 -0.0901,-0.676982 -0.0535,-0.417803 0.0737,-0.901662 -0.15735,-1.253829 -1.34236,-2.045617 -2.28228,-4.739844 -4.48063,-5.813972 -2.04448,-0.998946 -4.54677,0.194885 -6.82015,0.292327 0.80506,-0.36486 1.02055,-0.511603 2.11428,-0.617826 0.424,-0.04118 0.85223,0.02803 1.27595,0.07191 0.044,0.0046 0.15488,0.0801 0.11148,0.07177 -0.64217,-0.123291 -1.25984,-0.357761 -1.90191,-0.480592 -2.54986,-0.479454 -5.64232,-1.357678 -7.83385,1.305605 -3.61249,4.390124 -3.76829,9.617278 0.5629,12.650139 -0.0476,-0.0873 -0.4128,-0.648669 -0.36122,-0.862799 0.0201,-0.08342 0.15917,0.276993 0.17141,0.192062 1.1125,-7.719184 -1.18084,-3.090986 13.73652,-4.791728 0.32882,0.800505 0.69551,1.586481 0.98646,2.401514 0.0505,0.141444 0.0581,0.597256 0.0313,0.449472 -0.16599,-0.916663 -0.0573,-1.862757 -0.0922,-2.786028 0,-10.69004 -15.118,-10.69004 -15.118,0 z" />
    <path
       style="fill:#000000;fill-opacity:1"
       id="path39"
       d="m 474.56795,29.323129 c -2.814,0.864883 -5.28557,2.461903 -6.87337,5.006679 -1.18144,1.893511 -1.16565,2.443095 -1.73766,4.555825 -0.4124,2.686253 -0.19366,5.362026 1.17282,7.784445 1.20479,2.13578 2.93643,3.448994 4.89943,4.767828 3.96056,2.263693 7.62895,2.622568 11.55574,-0.379012 1.94846,-1.489375 2.3267,-3.130782 3.1583,-5.208913 1.0315,-3.804295 0.67253,-7.722821 -0.0734,-11.536039 -0.23986,-0.731713 -0.39573,-1.496527 -0.71958,-2.195141 -1.50885,-3.254976 -4.49777,-6.280331 -8.26021,-6.69079 -1.32074,-0.144084 -2.6497,0.198721 -3.97455,0.298081 -0.8443,0.382762 -1.745,0.659855 -2.5329,1.148285 -2.50338,1.55188 -4.4607,4.38924 -4.94552,7.307798 -0.15141,0.911498 -0.13734,1.842865 -0.20602,2.764298 0.13877,0.805415 0.16224,1.639458 0.41631,2.416245 1.41118,4.314495 4.633,6.736953 9.2944,6.719139 1.10002,-0.0042 2.11213,-0.615765 3.1682,-0.923647 0.3469,-0.195789 0.69381,-0.391578 1.04071,-0.587367 9.16396,-5.504439 1.37951,-18.464232 -7.78445,-12.959792 v 0 c 0.0635,-0.02557 0.12702,-0.05113 0.19053,-0.0767 0.78733,-0.178615 1.55641,-0.589215 2.36197,-0.535844 3.24952,0.21529 5.59195,1.371876 6.35941,4.557028 0.0842,0.349507 0.0451,0.717602 0.0677,1.076403 -0.0795,0.400853 -0.13172,0.8081 -0.23852,1.20256 -0.0295,0.109137 -0.10574,0.200205 -0.16701,0.295237 -0.76929,1.193369 -1.81389,1.932633 -3.23416,2.231422 -0.85487,-0.02237 -1.72661,0.103364 -2.56461,-0.0671 -1.08652,-0.221021 -2.29669,-0.920481 -2.8085,-1.961288 -0.39046,-0.794048 -0.40438,-0.609491 -0.2879,-1.055598 0.10598,0.511976 0.25817,1.016347 0.3199,1.535521 0.0966,0.812732 0.0834,1.637609 0.17257,2.451475 0.49037,-0.763328 0.87414,-1.460522 1.74747,-1.965598 2.7151,-1.57024 3.04583,-1.220064 5.98745,-0.741598 0.0703,0.01143 0.13168,0.06726 0.17312,0.125171 0.0139,0.01936 -0.0454,0.01439 -0.0681,0.02158 -0.0613,-0.02405 -0.11846,-0.07962 -0.18387,-0.07214 -0.0309,0.0035 -0.0147,0.06559 -4.9e-4,0.09321 0.19889,0.38572 0.47929,0.731551 0.63471,1.136745 0.12742,0.332164 0.52777,1.768771 0.11647,2.16864 -0.66153,1.132642 -1.57444,1.865 -2.89677,2.050951 10.43548,-2.318996 7.15593,-17.076992 -3.27955,-14.757996 z" />
    <path
       style="fill:#000000;fill-opacity:1"
       id="path40"
       d="m 474.56795,29.323129 c -2.814,0.864883 -5.28557,2.461903 -6.87337,5.006679 -1.18144,1.893511 -1.16565,2.443095 -1.73766,4.555825 -0.4124,2.686253 -0.19366,5.362026 1.17282,7.784445 1.20479,2.13578 2.93643,3.448994 4.89943,4.767828 3.96056,2.263693 7.62895,2.622568 11.55574,-0.379012 1.94846,-1.489375 2.3267,-3.130782 3.1583,-5.208913 1.0315,-3.804295 0.67253,-7.722821 -0.0734,-11.536039 -0.23986,-0.731713 -0.39573,-1.496527 -0.71958,-2.195141 -1.50885,-3.254976 -4.49777,-6.280331 -8.26021,-6.69079 -1.32074,-0.144084 -2.6497,0.198721 -3.97455,0.298081 -0.8443,0.382762 -1.745,0.659855 -2.5329,1.148285 -2.50338,1.55188 -4.4607,4.38924 -4.94552,7.307798 -0.15141,0.911498 -0.13734,1.842865 -0.20602,2.764298 0.13877,0.805415 0.16224,1.639458 0.41631,2.416245 1.41118,4.314495 4.633,6.736953 9.2944,6.719139 1.10002,-0.0042 2.11213,-0.615765 3.1682,-0.923647 0.3469,-0.195789 0.69381,-0.391578 1.04071,-0.587367 9.16396,-5.504439 1.37951,-18.464232 -7.78445,-12.959792 v 0 c 0.0635,-0.02557 0.12702,-0.05113 0.19053,-0.0767 0.78733,-0.178615 1.55641,-0.589215 2.36197,-0.535844 3.24952,0.21529 5.59195,1.371876 6.35941,4.557028 0.0842,0.349507 0.0451,0.717602 0.0677,1.076403 -0.0795,0.400853 -0.13172,0.8081 -0.23852,1.20256 -0.0295,0.109137 -0.10574,0.200205 -0.16701,0.295237 -0.76929,1.193369 -1.81389,1.932633 -3.23416,2.231422 -0.85487,-0.02237 -1.72661,0.103364 -2.56461,-0.0671 -1.08652,-0.221021 -2.29669,-0.920481 -2.8085,-1.961288 -0.39046,-0.794048 -0.40438,-0.609491 -0.2879,-1.055598 0.10598,0.511976 0.25817,1.016347 0.3199,1.535521 0.0966,0.812732 0.0834,1.637609 0.17257,2.451475 0.49037,-0.763328 0.87414,-1.460522 1.74747,-1.965598 2.7151,-1.57024 3.04583,-1.220064 5.98745,-0.741598 0.0703,0.01143 0.13168,0.06726 0.17312,0.125171 0.0139,0.01936 -0.0454,0.01439 -0.0681,0.02158 -0.0613,-0.02405 -0.11846,-0.07962 -0.18387,-0.07214 -0.0309,0.0035 -0.0147,0.06559 -4.9e-4,0.09321 0.19889,0.38572 0.47929,0.731551 0.63471,1.136745 0.12742,0.332164 0.52777,1.768771 0.11647,2.16864 -0.66153,1.132642 -1.57444,1.865 -2.89677,2.050951 10.43548,-2.318996 7.15593,-17.076992 -3.27955,-14.757996 z" />
  </g>
</svg>
